HIERARCHY
ROOT Hips
{
	OFFSET 0.00 0.00 0.00
	CHANNELS 6 Xposition Yposition Zposition Xrotation Yrotation Zrotation
	JOINT Spine
	{
		OFFSET 0.00000 4.88528 0.00000
		CHANNELS 3 Xrotation Yrotation Zrotation
		JOINT Head
		{
			OFFSET 0.00000 16.49416 0.00000
			CHANNELS 3 Xrotation Yrotation Zrotation
			End Site
			{
				OFFSET 0.00000 4.52755 0.00000
			}
		}
		JOINT LeftShoulder
		{
			OFFSET 0.00000 10.66345 0.00000
			CHANNELS 3 Xrotation Yrotation Zrotation
			JOINT LeftArm
			{
				OFFSET 7.53191 0.00000 0.00000
				CHANNELS 3 Xrotation Yrotation Zrotation
				JOINT LeftForeArm
				{
					OFFSET 10.22920 0.00000 0.00000
					CHANNELS 3 Yrotation Zrotation Xrotation
					JOINT LeftHand
					{
						OFFSET 8.67349 0.00000 0.00000
						CHANNELS 3 Xrotation Yrotation Zrotation
						JOINT LeftHandThumb1
						{
							OFFSET 0.00000 0.00000 0.00000
							CHANNELS 3 Xrotation Zrotation Yrotation
							End Site
							{
								OFFSET 0.00000 0.00000 3.93700
							}
						}
						End Site
						{
							OFFSET 3.93700 0.00000 0.00000
						}
					}
				}
			}
		}
		JOINT RightShoulder
		{
			OFFSET 0.00000 10.66345 0.00000
			CHANNELS 3 Xrotation Yrotation Zrotation
			JOINT RightArm
			{
				OFFSET -7.53191 0.00000 0.00000
				CHANNELS 3 Xrotation Yrotation Zrotation
				JOINT RightForeArm
				{
					OFFSET -10.22920 0.00000 0.00000
					CHANNELS 3 Yrotation Zrotation Xrotation
					JOINT RightHand
					{
						OFFSET -8.67349 0.00000 0.00000
						CHANNELS 3 Xrotation Yrotation Zrotation
						JOINT RightHandThumb1
						{
							OFFSET 0.00000 0.00000 0.00000
							CHANNELS 3 Xrotation Zrotation Yrotation
							End Site
							{
								OFFSET 0.00000 0.00000 3.93700
							}
						}
						End Site
						{
							OFFSET -3.93700 0.00000 0.00000
						}
					}
				}
			}
		}
	}
	JOINT LeftUpLeg
	{
		OFFSET 2.67219 0.00000 0.00000
		CHANNELS 3 Xrotation Yrotation Zrotation
		JOINT LeftLeg
		{
			OFFSET 0.00000 -16.26339 0.00000
			CHANNELS 3 Xrotation Yrotation Zrotation
			JOINT LeftFoot
			{
				OFFSET 0.00000 -14.32816 0.00000
				CHANNELS 3 Xrotation Yrotation Zrotation
				JOINT LeftToeBase
				{
					OFFSET 0.00000 -1.30219 4.85985
					CHANNELS 3 Xrotation Yrotation Zrotation
					End Site
					{
						OFFSET 0.00000 0.00000 2.95275
					}
				}
			}
		}
	}
	JOINT RightUpLeg
	{
		OFFSET -2.67219 0.00000 0.00000
		CHANNELS 3 Xrotation Yrotation Zrotation
		JOINT RightLeg
		{
			OFFSET 0.00000 -16.26339 0.00000
			CHANNELS 3 Xrotation Yrotation Zrotation
			JOINT RightFoot
			{
				OFFSET 0.00000 -14.32816 0.00000
				CHANNELS 3 Xrotation Yrotation Zrotation
				JOINT RightToeBase
				{
					OFFSET 0.00000 -1.30219 4.85985
					CHANNELS 3 Xrotation Yrotation Zrotation
					End Site
					{
						OFFSET 0.00000 0.00000 2.95275
					}
				}
			}
		}
	}
}
MOTION
Frames: 20
Frame Time: 0.008333
 3.3521 32.9326 -9.3371 -13.8878 7.4015 -23.8915 26.7140 -5.6282 23.0896 1.6394 4.8270 5.1041 30.5691 10.5543 26.1479 -74.3092 -25.6117 -100.5710 -71.3098 -0.0000 -41.2118 -1.2439 -6.3769 -11.0615 33.1476 -0.0000 26.2537 3.6532 1.7811 -10.7674 -15.8984 33.9298 77.1913 53.4019 0.0000 -24.1785 -0.4858 2.6637 10.3405 32.8623 0.0000 -24.3270 1.2382 1.6342 19.9022 30.8889 -0.0000 0.0000 -16.7448 19.3447 7.2195 -17.7633 0.0000 0.0000 -115.5902 -13.3725 -5.1744 126.2902 -0.0000 -0.0000 46.7136 5.9338 -0.2406 37.9140 0.0000 0.0000
 3.2989 32.9936 -9.3440 -13.8394 7.7053 -24.0860 26.7342 -5.7392 23.1965 1.8809 4.7387 5.3530 30.4760 10.5658 26.1614 -74.2651 -25.4191 -100.3985 -71.6956 -0.0000 -40.0989 -1.2157 -6.5880 -10.4790 33.1476 -0.0000 26.2537 3.6012 1.7155 -11.0258 -15.5249 33.6818 77.2533 54.6700 0.0000 -24.6160 -0.3317 1.8225 10.3184 32.8623 0.0000 -24.3270 0.9937 1.7300 20.3069 30.9514 -0.0000 -0.0000 -16.1753 19.1728 7.1378 -17.8456 0.0000 0.0000 -115.8756 -14.2463 -5.4231 124.3366 0.0000 0.0000 46.3879 4.8413 1.4496 38.1572 -0.0000 0.0000
 3.2622 33.0505 -9.3541 -13.7528 8.0015 -24.1315 26.7090 -5.8986 23.2048 2.0701 4.6153 5.5129 30.4081 10.5353 26.1800 -74.2635 -25.2263 -100.1940 -72.1489 -0.0000 -39.0824 -1.1363 -6.5587 -9.8516 33.1476 -0.0000 26.2537 3.6469 1.6201 -11.3236 -15.2471 33.3337 77.3110 55.9064 0.0000 -24.5350 -0.2027 1.0769 10.6585 32.8623 0.0000 -24.3270 0.7460 1.8496 20.4840 30.9091 -0.0000 0.0000 -15.6391 19.1307 7.1892 -17.7680 0.0000 -0.0000 -116.2098 -15.0167 -5.6699 122.5096 -0.0000 -0.0000 45.7244 3.3988 2.3847 37.8608 -0.0000 -0.0000
 3.2307 33.1082 -9.3657 -13.7161 8.3285 -24.1410 26.7985 -6.1124 23.2304 2.1924 4.5681 5.5563 30.3177 10.5459 26.1285 -74.3159 -25.0544 -99.9833 -72.5285 -0.0000 -37.8898 -1.1175 -6.6789 -9.5211 33.1476 -0.0000 26.2537 3.7306 1.6105 -11.6876 -15.0105 32.9323 77.3522 57.2524 0.0000 -24.5375 0.0060 -0.0302 11.1812 32.8623 0.0000 -24.3270 0.5937 2.0394 20.5885 30.7433 -0.0000 0.0000 -15.1499 19.1937 7.3775 -17.6657 0.0000 0.0000 -116.4720 -15.5246 -5.9028 120.6160 -0.0000 -0.0000 45.1585 2.2494 3.3454 38.3157 0.0000 0.0000
 3.1994 33.1653 -9.3798 -13.6938 8.6440 -24.2011 26.9214 -6.2604 23.3205 2.2334 4.5118 5.5654 30.1989 10.5183 26.1042 -74.3757 -24.8160 -99.7735 -72.9472 -0.0000 -36.6668 -1.1015 -6.6488 -9.4290 33.1476 -0.0000 26.2537 3.8549 1.5765 -12.0511 -14.8218 32.7932 77.3084 58.5804 0.0000 -25.5584 0.2484 -1.2279 11.4363 32.8623 0.0000 -24.3270 0.4476 2.3728 20.7339 30.4914 -0.0000 -0.0000 -14.7574 19.3432 7.6583 -17.4157 -0.0000 -0.0000 -116.7625 -16.0887 -6.1841 118.7650 -0.0000 -0.0000 44.8064 0.7497 4.4458 38.4262 0.0000 0.0000
 3.1728 33.2182 -9.3942 -13.6820 8.9357 -24.2154 27.0330 -6.3691 23.3581 2.2603 4.4199 5.5985 30.0926 10.4491 26.1546 -74.4862 -24.5091 -99.6246 -73.4160 -0.0000 -35.2065 -1.0853 -6.7677 -9.1328 33.1476 -0.0000 26.2537 3.9959 1.5284 -12.3922 -14.6876 32.4697 77.2123 59.8094 0.0000 -26.0105 0.5069 -2.2952 12.4568 32.8623 0.0000 -24.3270 0.3302 2.8087 20.7977 30.1174 -0.0000 0.0000 -14.4451 19.6260 7.9687 -17.1056 -0.0000 -0.0000 -117.0562 -16.5976 -6.4580 116.9747 -0.0000 0.0000 44.4568 -0.6091 5.0023 38.1734 -0.0000 -0.0000
 3.1453 33.2656 -9.4112 -13.5950 9.2187 -24.3005 27.0782 -6.4758 23.4980 2.2703 4.3506 5.5526 30.0142 10.3862 26.1981 -74.6300 -24.1205 -99.5076 -74.0089 -0.0000 -33.7660 -1.0196 -6.4570 -8.9932 33.1476 -0.0000 26.2537 4.1306 1.4776 -12.7369 -14.6067 32.2609 77.0636 60.8991 0.0000 -26.6003 0.8507 -3.4349 13.9199 32.8623 0.0000 -24.3270 0.1082 3.3115 20.9134 29.7193 0.0000 0.0000 -14.2295 19.9336 8.3667 -16.6901 -0.0000 0.0000 -117.4201 -16.9218 -6.8154 115.1912 0.0000 0.0000 44.1918 -1.4470 5.8292 38.1521 -0.0000 0.0000
 3.1287 33.3058 -9.4218 -13.5818 9.5230 -24.2595 27.1936 -6.6345 23.5381 2.2665 4.2828 5.5135 29.9824 10.3449 26.2266 -74.8397 -23.8198 -99.3651 -74.6505 -0.0000 -32.4521 -0.9751 -6.2399 -8.8997 33.1476 -0.0000 26.2537 4.2186 1.4585 -13.0378 -14.4630 32.1306 76.7985 61.9109 0.0000 -27.6284 1.1601 -4.1478 15.6412 32.8623 0.0000 -24.3270 0.0202 3.8630 20.8608 29.2239 -0.0000 0.0000 -14.0592 20.3473 8.6847 -16.1913 -0.0000 -0.0000 -117.7711 -17.1264 -7.1766 113.4867 0.0000 0.0000 44.0732 -2.3692 6.5780 38.1275 -0.0000 -0.0000
 3.1164 33.3385 -9.4306 -13.6219 9.8673 -24.1798 27.3882 -6.8022 23.5706 2.2231 4.1933 5.4740 29.9247 10.3133 26.2842 -75.1172 -23.5921 -99.2727 -75.2552 -0.0000 -31.1299 -0.9534 -6.2281 -8.7210 33.1476 -0.0000 26.2537 4.2561 1.4048 -13.3267 -14.3882 32.2206 76.4773 62.7144 0.0000 -29.3040 1.4861 -4.7926 17.2501 32.8623 0.0000 -24.3270 -0.0067 4.4877 20.7515 28.6551 0.0000 -0.0000 -13.9195 20.9239 9.0623 -16.0424 -0.0000 0.0000 -118.1052 -17.2560 -7.5935 111.8784 -0.0000 0.0000 43.9060 -3.1920 7.3686 37.7596 0.0000 0.0000
 3.0861 33.3664 -9.4485 -13.5503 10.1975 -24.3090 27.5004 -6.9009 23.7809 2.1443 4.0982 5.4734 29.7147 10.2163 26.4628 -75.2255 -23.3560 -99.1625 -75.9248 -0.0000 -29.8501 -0.9304 -6.1404 -8.6326 33.1476 -0.0000 26.2537 4.1641 1.3643 -13.5861 -14.2587 32.5138 76.1347 63.3836 0.0000 -31.6257 1.6890 -4.8798 19.1181 32.8623 0.0000 -24.3270 -0.2869 5.1936 20.8881 28.2248 0.0000 -0.0000 -13.8326 21.3332 9.4578 -15.9666 -0.0000 -0.0000 -118.5530 -17.5379 -8.1387 110.2446 -0.0000 0.0000 43.8617 -4.2164 8.0570 37.5734 0.0000 -0.0000
 3.0686 33.3878 -9.4548 -13.5704 10.6318 -24.4071 27.7511 -7.0979 24.0626 2.0852 4.0349 5.3909 29.5250 10.0894 26.5903 -75.3303 -23.2417 -99.0141 -76.6738 -0.0000 -28.7534 -0.8713 -6.1011 -8.1435 33.1476 -0.0000 26.2537 4.0185 1.3646 -13.8624 -14.1506 32.9426 75.7585 63.9866 0.0000 -34.1043 1.8547 -4.9406 20.6059 32.8623 0.0000 -24.3270 -0.4441 5.9107 20.9894 27.7851 -0.0000 0.0000 -13.7900 21.7650 9.7970 -15.7580 -0.0000 -0.0000 -118.9451 -17.8336 -8.8704 108.6947 -0.0000 -0.0000 43.7612 -5.2329 8.5375 37.5936 0.0000 0.0000
 3.0490 33.3935 -9.4716 -13.5502 10.9995 -24.4199 27.9245 -7.2787 24.2126 2.0114 3.9717 5.3659 29.3488 10.0020 26.7586 -75.4933 -23.1341 -98.8620 -77.4004 -0.0000 -27.6364 -0.8583 -6.2652 -7.8163 33.1476 -0.0000 26.2537 3.8026 1.4028 -14.1035 -14.0430 33.3416 75.4092 64.6820 0.0000 -36.5394 1.9121 -4.8794 21.4302 32.8623 0.0000 -24.3270 -0.7016 6.6423 20.9887 27.4031 0.0000 -0.0000 -13.7435 22.2407 10.1687 -16.0180 0.0000 -0.0000 -119.4128 -17.9688 -9.5165 107.1720 0.0000 0.0000 43.5682 -5.7448 8.5691 37.5815 0.0000 0.0000
 3.0448 33.3816 -9.5022 -13.4862 11.2901 -24.2370 28.0172 -7.4854 24.1649 1.9024 3.8878 5.3307 29.1502 9.8944 26.9173 -75.7060 -23.0972 -98.6839 -78.1196 -0.0000 -26.5257 -0.8400 -6.2235 -7.7022 33.1476 -0.0000 26.2537 3.5091 1.4569 -14.3392 -13.9957 33.7027 75.1234 65.5006 0.0000 -38.7951 2.0542 -4.8370 23.0437 32.8623 0.0000 -24.3270 -1.0010 7.3007 20.7241 27.0826 -0.0000 -0.0000 -13.7759 22.7192 10.6381 -16.1035 0.0000 0.0000 -119.9758 -17.9444 -9.9734 105.5707 -0.0000 -0.0000 43.7245 -6.5094 8.3637 37.6278 -0.0000 0.0000
 3.0330 33.3744 -9.5193 -13.5434 11.7107 -24.2170 28.2886 -7.6505 24.3332 1.8079 3.7699 5.3057 29.0098 9.7622 27.0143 -76.0220 -23.0956 -98.5334 -78.8321 -0.0000 -25.6761 -0.8072 -6.5510 -7.0405 33.1476 -0.0000 26.2537 3.1907 1.5286 -14.5155 -13.9378 34.0020 74.7720 66.5091 0.0000 -40.8463 1.7828 -4.1678 23.1840 32.8623 0.0000 -24.3270 -1.1317 7.8420 20.6901 26.7844 0.0000 -0.0000 -13.8195 23.0692 11.0685 -16.6288 0.0000 0.0000 -120.3533 -18.0069 -10.6663 104.0610 -0.0000 -0.0000 43.6990 -6.9474 8.5116 37.5444 -0.0000 0.0000
 3.0296 33.3581 -9.5329 -13.7123 12.1159 -24.0880 28.6379 -7.7912 24.3973 1.7106 3.6321 5.3096 28.8569 9.6006 27.1224 -76.3273 -22.9642 -98.4005 -79.5367 -0.0000 -24.3314 -0.7953 -6.5000 -6.9912 33.1476 -0.0000 26.2537 2.8987 1.5857 -14.6677 -14.0331 34.3442 74.4623 67.6735 0.0000 -41.9613 1.3733 -3.2643 22.8315 32.8623 0.0000 -24.3270 -1.0833 8.3083 20.5499 26.4979 -0.0000 0.0000 -13.9200 23.3965 11.5067 -16.8184 0.0000 0.0000 -120.6167 -17.9315 -11.2755 102.5857 -0.0000 -0.0000 43.6409 -7.2996 9.0440 37.8202 -0.0000 0.0000
 3.0196 33.3366 -9.5469 -13.9298 12.4909 -23.9478 29.0182 -7.8947 24.4177 1.6115 3.4994 5.3540 28.6669 9.4371 27.2146 -76.6530 -22.9244 -98.3146 -80.2415 -0.0000 -23.3913 -0.7365 -6.4568 -6.5215 33.1476 -0.0000 26.2537 2.6016 1.6822 -14.7421 -14.2670 34.7540 74.1889 68.8625 0.0000 -43.1829 1.4098 -3.0210 25.0317 32.8623 0.0000 -24.3270 -0.9973 8.7402 20.4523 26.3000 -0.0000 0.0000 -14.1152 23.6035 11.8271 -16.8421 0.0000 0.0000 -120.8162 -17.9036 -11.8510 101.1250 -0.0000 0.0000 43.5364 -7.5340 9.0640 37.8003 -0.0000 -0.0000
 2.9959 33.3130 -9.5634 -14.1729 12.8243 -23.8835 29.4109 -7.9253 24.4368 1.5225 3.4123 5.5441 28.4592 9.3152 27.3230 -76.9975 -22.8093 -98.3006 -80.9076 -0.0000 -22.2090 -0.6761 -6.2532 -6.1830 33.1476 -0.0000 26.2537 2.2672 1.8078 -14.7338 -14.5466 35.1397 73.9230 70.0182 0.0000 -44.7549 1.3433 -2.7134 26.3516 32.8623 0.0000 -24.3270 -0.8852 9.0788 20.4954 26.1713 0.0000 -0.0000 -14.3736 23.6359 12.0157 -16.8112 -0.0000 -0.0000 -120.9664 -17.9596 -12.3598 99.6022 -0.0000 0.0000 43.5364 -7.6923 8.8218 37.8157 0.0000 0.0000
 2.9873 33.2819 -9.5733 -14.5029 13.1389 -23.6712 29.7908 -7.9099 24.3276 1.5093 3.2325 5.7149 28.2635 9.0796 27.4762 -77.2824 -22.6638 -98.3052 -81.5421 -0.0000 -21.1034 -0.6354 -6.2835 -5.7855 33.1476 -0.0000 26.2537 1.9677 1.8665 -14.7014 -14.9592 35.6023 73.7049 71.0020 0.0000 -46.0016 1.3352 -2.5010 28.1074 32.8623 0.0000 -24.3270 -0.5244 9.2500 20.3683 25.9982 0.0000 -0.0000 -14.6844 23.6487 12.1667 -16.6545 -0.0000 -0.0000 -121.0154 -17.8862 -12.8098 98.0873 -0.0000 -0.0000 43.5939 -7.7856 8.7478 37.9006 -0.0000 0.0000
 2.9608 33.2545 -9.5806 -14.8587 13.4079 -23.6231 30.1653 -7.8142 24.3149 1.5955 3.1066 5.9385 28.0881 8.8629 27.6330 -77.5262 -22.5307 -98.3185 -82.1294 -0.0000 -20.1334 -0.5678 -6.1331 -5.2999 33.1476 -0.0000 26.2537 1.6464 2.0209 -14.6194 -15.3410 36.1230 73.4863 72.1828 0.0000 -48.0138 1.2997 -2.3550 28.9061 32.8623 0.0000 -24.3270 -0.1508 9.3733 20.4967 25.8942 -0.0000 -0.0000 -15.0495 23.4547 12.0892 -16.5500 0.0000 -0.0000 -121.0247 -17.9863 -13.2545 96.5558 -0.0000 -0.0000 43.6755 -7.7977 8.5135 37.6428 0.0000 -0.0000
 2.9379 33.2137 -9.5912 -15.1647 13.6266 -23.4484 30.4105 -7.7812 24.1455 1.7769 2.9639 6.1850 27.9759 8.7065 27.7889 -77.8165 -22.4390 -98.3611 -82.6199 -0.0000 -19.3097 -0.5002 -6.0603 -4.7273 33.1476 -0.0000 26.2537 1.3073 2.1858 -14.5113 -15.7774 36.7064 73.3705 73.2393 0.0000 -50.4886 1.3651 -2.3984 29.6586 32.8623 0.0000 -24.3270 0.2402 9.3659 20.4698 25.8166 -0.0000 0.0000 -15.4917 23.2671 11.8916 -16.3728 -0.0000 -0.0000 -121.0303 -17.9026 -13.5529 94.9443 0.0000 -0.0000 43.8100 -7.5458 8.2440 37.6033 -0.0000 0.0000
